<svg width="20" height="20" viewBox="0 0 20 20" fill="none" xmlns="http://www.w3.org/2000/svg">
<g id="Frame 427319049">
<path id="arrow_back_ios" d="M15.3641 9.53549L9.73728 14.5983C9.54589 14.7705 9.45338 14.9714 9.45976 15.2011C9.46614 15.4307 9.56503 15.6316 9.75641 15.8038C9.9478 15.976 10.1711 16.0621 10.4263 16.0621C10.6815 16.0621 10.9047 15.976 11.0961 15.8038L16.9909 10.5171C17.144 10.3793 17.2588 10.2243 17.3354 10.0521C17.4119 9.8799 17.4502 9.70769 17.4502 9.53549C17.4502 9.36328 17.4119 9.19107 17.3354 9.01887C17.2588 8.84666 17.144 8.69168 16.9909 8.55391L11.0961 3.24998C10.9047 3.07777 10.6783 2.99454 10.4167 3.00028C10.1551 3.00602 9.92866 3.09499 9.73728 3.2672C9.54589 3.4394 9.4502 3.64031 9.4502 3.86992C9.4502 4.09952 9.54589 4.30043 9.73728 4.47264L15.3641 9.53549Z" fill="#39A7FF"/>
</g>
</svg>
