<svg width="16" height="16" viewBox="0 0 16 16" fill="none" xmlns="http://www.w3.org/2000/svg">
<path d="M16 8C16 12.4183 12.4183 16 8 16C3.58172 16 0 12.4183 0 8C0 3.58172 3.58172 0 8 0C12.4183 0 16 3.58172 16 8Z" fill="#87C4FF"/>
<path d="M6.20628 10.001L11.4978 4.26725C11.6622 4.08908 11.8714 4 12.1256 4C12.3797 4 12.5889 4.08908 12.7534 4.26725C12.9178 4.44542 13 4.67217 13 4.94752C13 5.22287 12.9178 5.44963 12.7534 5.62779L6.83408 12.0418C6.65471 12.2362 6.44544 12.3333 6.20628 12.3333C5.96711 12.3333 5.75785 12.2362 5.57848 12.0418L3.24664 9.51506C3.08221 9.3369 3 9.11014 3 8.83479C3 8.55944 3.08221 8.33269 3.24664 8.15452C3.41106 7.97635 3.62033 7.88727 3.87444 7.88727C4.12855 7.88727 4.33782 7.97635 4.50224 8.15452L6.20628 10.001Z" fill="white"/>
</svg>
