<svg width="24" height="24" viewBox="0 0 24 24" fill="none" xmlns="http://www.w3.org/2000/svg">
<g id="icon/&#235;&#140;&#147;&#234;&#184;&#128;">
<path id="Icon" d="M21 10.5556C21.0034 11.7288 20.695 12.8861 20.1 13.9333C19.3944 15.1882 18.3097 16.2437 16.9674 16.9816C15.6251 17.7195 14.0782 18.1106 12.5 18.1111C11.1801 18.1142 9.8781 17.8401 8.69999 17.3111L3 19L4.9 13.9333C4.30493 12.8861 3.99656 11.7288 4 10.5556C4.00061 9.15269 4.44061 7.77766 5.27072 6.58451C6.10082 5.39135 7.28825 4.42719 8.69999 3.80002C9.8781 3.27107 11.1801 2.99697 12.5 3.00003H13C15.0843 3.10224 17.053 3.88426 18.5291 5.19634C20.0052 6.50843 20.885 8.25837 21 10.1111V10.5556Z" stroke="#FADD79" stroke-width="2" stroke-linecap="round" stroke-linejoin="round"/>
</g>
</svg>
