<svg width="16" height="16" viewBox="0 0 16 16" fill="none" xmlns="http://www.w3.org/2000/svg">
<g id="Frame 427319324">
<rect width="16" height="16" rx="8" fill="#D9D9D9"/>
<path id="close_small" d="M8 8.90164L6.09836 10.8033C5.97814 10.9235 5.82514 10.9836 5.63934 10.9836C5.45355 10.9836 5.30055 10.9235 5.18033 10.8033C5.06011 10.6831 5 10.5301 5 10.3443C5 10.1585 5.06011 10.0055 5.18033 9.88525L7.08197 7.98361L5.18033 6.09836C5.06011 5.97814 5 5.82514 5 5.63934C5 5.45355 5.06011 5.30055 5.18033 5.18033C5.30055 5.06011 5.45355 5 5.63934 5C5.82514 5 5.97814 5.06011 6.09836 5.18033L8 7.08197L9.88525 5.18033C10.0055 5.06011 10.1585 5 10.3443 5C10.5301 5 10.6831 5.06011 10.8033 5.18033C10.9344 5.31148 11 5.46721 11 5.64754C11 5.82787 10.9344 5.97814 10.8033 6.09836L8.90164 7.98361L10.8033 9.88525C10.9235 10.0055 10.9836 10.1585 10.9836 10.3443C10.9836 10.5301 10.9235 10.6831 10.8033 10.8033C10.6721 10.9344 10.5164 11 10.3361 11C10.1557 11 10.0055 10.9344 9.88525 10.8033L8 8.90164Z" fill="white"/>
</g>
</svg>
