<svg width="20" height="20" viewBox="0 0 20 20" fill="none" xmlns="http://www.w3.org/2000/svg">
<g id="Frame 427319284">
<rect width="20" height="20" rx="10" fill="#D9D9D9"/>
<path id="close_small" d="M10 11.2022L7.46448 13.7377C7.30419 13.898 7.10018 13.9781 6.85246 13.9781C6.60474 13.9781 6.40073 13.898 6.24044 13.7377C6.08015 13.5774 6 13.3734 6 13.1257C6 12.878 6.08015 12.674 6.24044 12.5137L8.77596 9.97814L6.24044 7.46448C6.08015 7.30419 6 7.10018 6 6.85246C6 6.60474 6.08015 6.40073 6.24044 6.24044C6.40073 6.08015 6.60474 6 6.85246 6C7.10018 6 7.30419 6.08015 7.46448 6.24044L10 8.77596L12.5137 6.24044C12.674 6.08015 12.878 6 13.1257 6C13.3734 6 13.5774 6.08015 13.7377 6.24044C13.9126 6.4153 14 6.62295 14 6.86339C14 7.10383 13.9126 7.30419 13.7377 7.46448L11.2022 9.97814L13.7377 12.5137C13.898 12.674 13.9781 12.878 13.9781 13.1257C13.9781 13.3734 13.898 13.5774 13.7377 13.7377C13.5628 13.9126 13.3552 14 13.1148 14C12.8743 14 12.674 13.9126 12.5137 13.7377L10 11.2022Z" fill="#494949"/>
</g>
</svg>
