<svg width="24" height="24" viewBox="0 0 24 24" fill="none" xmlns="http://www.w3.org/2000/svg">
<g id="Frame 427319301">
<path id="add_photo_alternate" d="M4.22221 22.0001C3.6111 22.0001 3.08796 21.7825 2.65277 21.3473C2.21758 20.9121 1.99999 20.389 1.99999 19.7778V4.2223C1.99999 3.61118 2.21758 3.08804 2.65277 2.65285C3.08796 2.21767 3.6111 2.00007 4.22221 2.00007H13.1111C13.4259 2.00007 13.6898 2.10655 13.9028 2.31952C14.1157 2.53248 14.2222 2.79637 14.2222 3.11118C14.2222 3.426 14.1157 3.68989 13.9028 3.90285C13.6898 4.11581 13.4259 4.2223 13.1111 4.2223H5.22222C4.66993 4.2223 4.22221 4.67001 4.22221 5.2223V18.7778C4.22221 19.3301 4.66993 19.7778 5.22221 19.7778H18.7778C19.3301 19.7778 19.7778 19.3301 19.7778 18.7778V10.889C19.7778 10.5741 19.8843 10.3103 20.0972 10.0973C20.3102 9.88433 20.5741 9.77785 20.8889 9.77785C21.2037 9.77785 21.4676 9.88433 21.6805 10.0973C21.8935 10.3103 22 10.5741 22 10.889V19.7778C22 20.389 21.7824 20.9121 21.3472 21.3473C20.912 21.7825 20.3889 22.0001 19.7778 22.0001H4.22221ZM17.5555 6.44452H16.4444C16.1296 6.44452 15.8657 6.33804 15.6528 6.12507C15.4398 5.91211 15.3333 5.64822 15.3333 5.33341C15.3333 5.01859 15.4398 4.7547 15.6528 4.54174C15.8657 4.32878 16.1296 4.2223 16.4444 4.2223H17.5555V3.11118C17.5555 2.79637 17.662 2.53248 17.875 2.31952C18.088 2.10655 18.3518 2.00007 18.6667 2.00007C18.9815 2.00007 19.2454 2.10655 19.4583 2.31952C19.6713 2.53248 19.7778 2.79637 19.7778 3.11118V4.2223H20.8889C21.2037 4.2223 21.4676 4.32878 21.6805 4.54174C21.8935 4.7547 22 5.01859 22 5.33341C22 5.64822 21.8935 5.91211 21.6805 6.12507C21.4676 6.33804 21.2037 6.44452 20.8889 6.44452H19.7778V7.55563C19.7778 7.87044 19.6713 8.13433 19.4583 8.3473C19.2454 8.56026 18.9815 8.66674 18.6667 8.66674C18.3518 8.66674 18.088 8.56026 17.875 8.3473C17.662 8.13433 17.5555 7.87044 17.5555 7.55563V6.44452ZM11.1667 16.4445L9.1111 13.6945C8.99999 13.5464 8.85184 13.4723 8.66666 13.4723C8.48147 13.4723 8.33333 13.5464 8.22221 13.6945L5.99999 16.6667C5.85184 16.8519 5.83333 17.0464 5.94444 17.2501C6.05555 17.4538 6.22221 17.5556 6.44444 17.5556H17.5555C17.7778 17.5556 17.9444 17.4538 18.0555 17.2501C18.1667 17.0464 18.1481 16.8519 18 16.6667L14.9444 12.5834C14.8333 12.4353 14.6852 12.3612 14.5 12.3612C14.3148 12.3612 14.1667 12.4353 14.0555 12.5834L11.1667 16.4445Z" fill="#171717"/>
</g>
</svg>
