<svg width="24" height="24" viewBox="0 0 24 24" fill="none" xmlns="http://www.w3.org/2000/svg">
<g id="Frame 427318986">
<path id="arrow_back_ios" d="M2.725 11.537L10.075 18.1503C10.325 18.3753 10.4458 18.6377 10.4375 18.9376C10.4292 19.2376 10.3 19.5 10.05 19.7249C9.8 19.9499 9.50833 20.0623 9.175 20.0623C8.84167 20.0623 8.55 19.9499 8.3 19.7249L0.6 12.8192C0.4 12.6392 0.25 12.4368 0.15 12.2118C0.05 11.9869 0 11.7619 0 11.537C0 11.312 0.05 11.0871 0.15 10.8621C0.25 10.6372 0.4 10.4348 0.6 10.2548L8.3 3.32653C8.55 3.10159 8.84583 2.99286 9.1875 3.00036C9.52917 3.00786 9.825 3.12408 10.075 3.34903C10.325 3.57397 10.45 3.8364 10.45 4.13633C10.45 4.43625 10.325 4.69869 10.075 4.92363L2.725 11.537Z" fill="#171717"/>
</g>
</svg>
