<svg width="24" height="24" viewBox="0 0 24 24" fill="none" xmlns="http://www.w3.org/2000/svg">
<g id="icon/&#236;&#162;&#139;&#236;&#149;&#132;&#236;&#154;&#148;">
<path id="Union" fill-rule="evenodd" clip-rule="evenodd" d="M11.3588 19.8868C11.5763 19.9623 11.79 20 12 20C12.21 20 12.4237 19.9623 12.6413 19.8868C12.8588 19.8114 13.05 19.6907 13.215 19.5248L14.745 18.1216C16.365 16.6582 17.8125 15.2023 19.0875 13.7539C20.3625 12.3055 21 10.7138 21 8.97878C21 7.56058 20.5275 6.37624 19.5825 5.42574C18.6375 4.47525 17.46 4 16.05 4C15.255 4 14.505 4.16973 13.8 4.50919C13.095 4.84866 12.495 5.31259 12 5.90099C11.505 5.31259 10.905 4.84866 10.2 4.50919C9.495 4.16973 8.745 4 7.95 4C6.54 4 5.3625 4.47525 4.4175 5.42574C3.4725 6.37624 3 7.56058 3 8.97878C3 10.7138 3.64125 12.3017 4.92375 13.7426C6.20625 15.1834 7.6425 16.6355 9.2325 18.099L10.785 19.5248C10.95 19.6907 11.1412 19.8114 11.3588 19.8868Z" fill="#FF85CE"/>
</g>
</svg>
