<svg width="24" height="24" viewBox="0 0 24 24" fill="none" xmlns="http://www.w3.org/2000/svg">
<g id="icon/&#236;&#162;&#139;&#236;&#149;&#132;&#236;&#154;&#148;">
<path id="favorite" d="M12 21C11.7667 21 11.5292 20.9576 11.2875 20.8727C11.0458 20.7878 10.8333 20.6521 10.65 20.4653L8.925 18.8614C7.15833 17.215 5.5625 15.5813 4.1375 13.9604C2.7125 12.3395 2 10.553 2 8.60113C2 7.00566 2.525 5.67327 3.575 4.60396C4.625 3.53465 5.93333 3 7.5 3C8.38333 3 9.21667 3.19095 10 3.57284C10.7833 3.95474 11.45 4.47666 12 5.13861C12.55 4.47666 13.2167 3.95474 14 3.57284C14.7833 3.19095 15.6167 3 16.5 3C18.0667 3 19.375 3.53465 20.425 4.60396C21.475 5.67327 22 7.00566 22 8.60113C22 10.553 21.2917 12.3437 19.875 13.9731C18.4583 15.6025 16.85 17.2405 15.05 18.8868L13.35 20.4653C13.1667 20.6521 12.9542 20.7878 12.7125 20.8727C12.4708 20.9576 12.2333 21 12 21ZM11.05 7.17539C10.5667 6.47949 10.05 5.94908 9.5 5.58416C8.95 5.21924 8.28333 5.03678 7.5 5.03678C6.5 5.03678 5.66667 5.37624 5 6.05516C4.33333 6.73409 4 7.58274 4 8.60113C4 9.48373 4.30833 10.4215 4.925 11.4144C5.54167 12.4074 6.27917 13.3706 7.1375 14.3041C7.99583 15.2376 8.87917 16.1117 9.7875 16.9264C10.6958 17.7412 11.4333 18.4116 12 18.9378C12.5667 18.4116 13.3042 17.7412 14.2125 16.9264C15.1208 16.1117 16.0042 15.2376 16.8625 14.3041C17.7208 13.3706 18.4583 12.4074 19.075 11.4144C19.6917 10.4215 20 9.48373 20 8.60113C20 7.58274 19.6667 6.73409 19 6.05516C18.3333 5.37624 17.5 5.03678 16.5 5.03678C15.7167 5.03678 15.05 5.21924 14.5 5.58416C13.95 5.94908 13.4333 6.47949 12.95 7.17539C12.8333 7.34512 12.6917 7.47242 12.525 7.55728C12.3583 7.64215 12.1833 7.68458 12 7.68458C11.8167 7.68458 11.6417 7.64215 11.475 7.55728C11.3083 7.47242 11.1667 7.34512 11.05 7.17539Z" fill="#FF85CE"/>
</g>
</svg>
