<svg width="16" height="16" viewBox="0 0 16 16" fill="none" xmlns="http://www.w3.org/2000/svg">
<path d="M7.99998 14.6667C7.84442 14.6667 7.71109 14.6222 7.59998 14.5333C7.48887 14.4444 7.40554 14.3278 7.34998 14.1833C7.13887 13.5611 6.8722 12.9778 6.54998 12.4333C6.23887 11.8889 5.79998 11.25 5.23331 10.5167C4.66665 9.78333 4.20554 9.08333 3.84998 8.41666C3.50554 7.74999 3.33331 6.94444 3.33331 5.99999C3.33331 4.69999 3.78331 3.59999 4.68331 2.69999C5.59442 1.78888 6.69998 1.33333 7.99998 1.33333C9.29998 1.33333 10.4 1.78888 11.3 2.69999C12.2111 3.59999 12.6666 4.69999 12.6666 5.99999C12.6666 7.01111 12.4722 7.85555 12.0833 8.53333C11.7055 9.19999 11.2666 9.8611 10.7666 10.5167C10.1666 11.3167 9.71109 11.9833 9.39998 12.5167C9.09998 13.0389 8.84998 13.5944 8.64998 14.1833C8.59442 14.3389 8.50554 14.4611 8.38331 14.55C8.2722 14.6278 8.14442 14.6667 7.99998 14.6667ZM7.99998 12.2833C8.18887 11.9055 8.39998 11.5333 8.63331 11.1667C8.87776 10.8 9.23331 10.3111 9.69998 9.69999C10.1778 9.07777 10.5666 8.50555 10.8666 7.98333C11.1778 7.44999 11.3333 6.78888 11.3333 5.99999C11.3333 5.07777 11.0055 4.29444 10.35 3.64999C9.70554 2.99444 8.9222 2.66666 7.99998 2.66666C7.07776 2.66666 6.28887 2.99444 5.63331 3.64999C4.98887 4.29444 4.66665 5.07777 4.66665 5.99999C4.66665 6.78888 4.81665 7.44999 5.11665 7.98333C5.42776 8.50555 5.8222 9.07777 6.29998 9.69999C6.76665 10.3111 7.11665 10.8 7.34998 11.1667C7.59442 11.5333 7.81109 11.9055 7.99998 12.2833ZM7.99998 7.66666C8.46665 7.66666 8.86109 7.50555 9.18331 7.18333C9.50554 6.86111 9.66665 6.46666 9.66665 5.99999C9.66665 5.53333 9.50554 5.13888 9.18331 4.81666C8.86109 4.49444 8.46665 4.33333 7.99998 4.33333C7.53331 4.33333 7.13887 4.49444 6.81665 4.81666C6.49442 5.13888 6.33331 5.53333 6.33331 5.99999C6.33331 6.46666 6.49442 6.86111 6.81665 7.18333C7.13887 7.50555 7.53331 7.66666 7.99998 7.66666Z" fill="#171718"/>
</svg>
