<svg width="28" height="28" viewBox="0 0 28 28" fill="none" xmlns="http://www.w3.org/2000/svg">
<circle cx="14" cy="14" r="14" fill="#87C4FF"/>
<path d="M14 15.5027L10.8306 18.6721C10.6302 18.8725 10.3752 18.9727 10.0656 18.9727C9.75592 18.9727 9.50091 18.8725 9.30055 18.6721C9.10018 18.4718 9 18.2168 9 17.9071C9 17.5975 9.10018 17.3424 9.30055 17.1421L12.4699 13.9727L9.30055 10.8306C9.10018 10.6302 9 10.3752 9 10.0656C9 9.75592 9.10018 9.50091 9.30055 9.30055C9.50091 9.10018 9.75592 9 10.0656 9C10.3752 9 10.6302 9.10018 10.8306 9.30055L14 12.4699L17.1421 9.30055C17.3424 9.10018 17.5975 9 17.9071 9C18.2168 9 18.4718 9.10018 18.6721 9.30055C18.8907 9.51913 19 9.77869 19 10.0792C19 10.3798 18.8907 10.6302 18.6721 10.8306L15.5027 13.9727L18.6721 17.1421C18.8725 17.3424 18.9727 17.5975 18.9727 17.9071C18.9727 18.2168 18.8725 18.4718 18.6721 18.6721C18.4536 18.8907 18.194 19 17.8934 19C17.5929 19 17.3424 18.8907 17.1421 18.6721L14 15.5027Z" fill="white"/>
</svg>
