<svg width="24" height="24" viewBox="0 0 24 24" fill="none" xmlns="http://www.w3.org/2000/svg">
<g id="Frame 427319294">
<path id="icon" d="M2 21.1765C1.44772 21.1765 1 20.7288 1 20.1765V19.3529C1 18.8007 1.44772 18.3529 2 18.3529H3.75L3.75 11.2941C3.75 9.34118 4.32291 7.61176 5.46875 6.10588C6.61458 4.57647 8.10417 3.57647 9.9375 3.10588V2.11765C9.9375 1.52941 10.1323 1.03529 10.5219 0.635293C10.9344 0.211764 11.4271 0 12 0C12.5729 0 13.0542 0.211764 13.4437 0.635293C13.8562 1.03529 14.0625 1.52941 14.0625 2.11765V3.10588C15.8958 3.57647 17.3854 4.57647 18.5312 6.10588C19.6771 7.61176 20.25 9.34118 20.25 11.2941L20.25 18.3529H22C22.5523 18.3529 23 18.8007 23 19.3529V20.1765C23 20.7288 22.5523 21.1765 22 21.1765H2ZM12 24C11.2437 24 10.5906 23.7294 10.0406 23.1882C9.51354 22.6235 9.25 21.9529 9.25 21.1765H12H14.75C14.75 21.9529 14.475 22.6235 13.925 23.1882C13.3979 23.7294 12.7562 24 12 24ZM6.5 18.3529H17.5V11.2941C17.5 9.74117 16.9615 8.41176 15.8844 7.30588C14.8073 6.2 13.5125 5.64706 12 5.64706C10.4875 5.64706 9.19271 6.2 8.11563 7.30588C7.03854 8.41176 6.5 9.74117 6.5 11.2941V18.3529Z" fill="#171717"/>
</g>
</svg>
