<svg width="24" height="24" viewBox="0 0 24 24" fill="none" xmlns="http://www.w3.org/2000/svg">
<g id="Frame 153">
<path id="Union" fill-rule="evenodd" clip-rule="evenodd" d="M12.6686 4C10.872 4 6.86954 4.98448 5.36224 9.07401L5.35467 9.09456L5.348 9.11541C5.00299 10.1949 4.80153 11.9033 5.29471 13.6265C5.80097 15.3954 7.03239 17.1403 9.45775 18.1793C10.4034 18.5923 11.9398 18.9731 13.5915 18.8242C14.5935 18.7338 15.6497 18.4458 16.6331 17.8468L16.5485 18.4579C16.4728 19.0049 16.8549 19.5098 17.402 19.5855C17.949 19.6612 18.4539 19.2791 18.5296 18.732L18.9982 15.346L19.1352 14.3555L18.1447 14.2184L15.173 13.8072C14.6259 13.7315 14.1211 14.1136 14.0454 14.6607C13.9697 15.2077 14.3518 15.7126 14.8989 15.7883L15.9074 15.9279C15.13 16.4951 14.2633 16.7555 13.4118 16.8323C12.1408 16.9469 10.9394 16.6446 10.2557 16.3454L10.2557 16.3454L10.2482 16.3421C8.41087 15.556 7.56994 14.3076 7.21751 13.0762C6.85496 11.8094 7.00304 10.5211 7.24658 9.74479C8.35188 6.7798 11.3091 6 12.6686 6C15.2352 6 16.7659 7.48805 17.1558 8.10228C17.4517 8.56856 18.0697 8.70661 18.5359 8.41063C19.0022 8.11465 19.1403 7.49672 18.8443 7.03045C18.1482 5.93377 16.0258 4 12.6686 4Z" fill="white"/>
</g>
</svg>
