<svg width="24" height="25" viewBox="0 0 24 25" fill="none" xmlns="http://www.w3.org/2000/svg">
<g id="Frame 427318960">
<path id="arrow_forward_ios" d="M14.6504 12.5051L8.31291 6.31168C8.09735 6.10102 7.99316 5.85174 8.00035 5.56384C8.00753 5.27593 8.11891 5.02665 8.33447 4.81599C8.55003 4.60533 8.80511 4.5 9.09971 4.5C9.39431 4.5 9.64939 4.60533 9.86495 4.81599L16.4827 11.3043C16.6551 11.4729 16.7844 11.6625 16.8707 11.8731C16.9569 12.0838 17 12.2944 17 12.5051C17 12.7158 16.9569 12.9264 16.8707 13.1371C16.7844 13.3477 16.6551 13.5373 16.4827 13.7059L9.84339 20.1942C9.62783 20.4049 9.37634 20.5067 9.08893 20.4997C8.80151 20.4926 8.55003 20.3838 8.33447 20.1731C8.11891 19.9625 8.01113 19.7132 8.01113 19.4253C8.01113 19.1374 8.11891 18.8881 8.33447 18.6774L14.6504 12.5051Z" fill="#1C1B1F"/>
</g>
</svg>
