<svg width="24" height="24" viewBox="0 0 24 24" fill="none" xmlns="http://www.w3.org/2000/svg">
<g id="Frame 427319275">
<path id="keyboard_double_arrow_up" d="M11.575 14.4L7.675 18.275C7.49167 18.4583 7.2625 18.5542 6.9875 18.5625C6.7125 18.5708 6.475 18.475 6.275 18.275C6.09167 18.0917 6 17.8583 6 17.575C6 17.2917 6.09167 17.0583 6.275 16.875L10.875 12.275C10.975 12.175 11.0833 12.1042 11.2 12.0625C11.3167 12.0208 11.4417 12 11.575 12C11.7083 12 11.8333 12.0208 11.95 12.0625C12.0667 12.1042 12.175 12.175 12.275 12.275L16.875 16.875C17.0583 17.0583 17.1542 17.2875 17.1625 17.5625C17.1708 17.8375 17.075 18.075 16.875 18.275C16.6917 18.4583 16.4583 18.55 16.175 18.55C15.8917 18.55 15.6583 18.4583 15.475 18.275L11.575 14.4ZM11.575 8.4L7.675 12.275C7.49167 12.4583 7.2625 12.5542 6.9875 12.5625C6.7125 12.5708 6.475 12.475 6.275 12.275C6.09167 12.0917 6 11.8583 6 11.575C6 11.2917 6.09167 11.0583 6.275 10.875L10.875 6.275C10.975 6.175 11.0833 6.10417 11.2 6.0625C11.3167 6.02083 11.4417 6 11.575 6C11.7083 6 11.8333 6.02083 11.95 6.0625C12.0667 6.10417 12.175 6.175 12.275 6.275L16.875 10.875C17.0583 11.0583 17.1542 11.2875 17.1625 11.5625C17.1708 11.8375 17.075 12.075 16.875 12.275C16.6917 12.4583 16.4583 12.55 16.175 12.55C15.8917 12.55 15.6583 12.4583 15.475 12.275L11.575 8.4Z" fill="#171717"/>
</g>
</svg>
